<svg xmlns="http://www.w3.org/2000/svg" width="256" height="256" viewBox="0 0 100 100"><rect width="100" height="100" rx="20" fill="#344fba"></rect><path d="M42.30 20.60L55.70 20.60L55.70 67.15Q55.70 76.84 50.09 82.20Q44.49 87.57 35.09 87.57L35.09 87.57Q25.59 87.57 19.74 82.06Q13.90 76.55 13.90 66.67L13.90 66.67L27.20 66.67Q27.30 70.95 29.24 73.32Q31.19 75.70 34.89 75.70L34.89 75.70Q38.50 75.70 40.41 73.42Q42.30 71.14 42.30 67.15L42.30 67.15L42.30 20.60ZM77.93 28.01Q74.41 28.01 72.09 25.77Q69.76 23.54 69.76 20.22L69.76 20.22Q69.76 16.89 72.09 14.66Q74.41 12.43 77.93 12.43L77.93 12.43Q81.44 12.43 83.77 14.66Q86.10 16.89 86.10 20.22L86.10 20.22Q86.10 23.54 83.77 25.77Q81.44 28.01 77.93 28.01L77.93 28.01ZM71.19 34.28L84.48 34.28L84.48 86.91L71.19 86.91L71.19 34.28Z" fill="#fff"></path></svg>