<?xml version="1.0" encoding="UTF-8"?>
<svg id="Capa_2" data-name="Capa 2" xmlns="http://www.w3.org/2000/svg" viewBox="0 0 244.52 30.64">
  <defs>
    <style>
      .cls-1, .cls-2 {
        stroke-width: 0px;
      }

      .cls-2 {
        fill: #344fba;
      }
    </style>
  </defs>
  <g id="Capa_1-2" data-name="Capa 1">
    <g>
      <path class="cls-1" d="m18.03,3.75v18.1c0,2.8-.79,4.96-2.37,6.48-1.58,1.52-3.71,2.27-6.38,2.27s-5.05-.79-6.74-2.39c-1.69-1.59-2.54-3.85-2.54-6.78h6.44c0,1.11.23,1.95.68,2.52.45.57,1.11.85,1.97.85.78,0,1.39-.25,1.82-.76.43-.5.64-1.24.64-2.2V3.75h6.48Z"/>
      <path class="cls-1" d="m23.73,6c-.72-.67-1.08-1.5-1.08-2.48s.36-1.85,1.08-2.52c.72-.67,1.65-1,2.78-1s2.03.33,2.75,1c.72.67,1.08,1.51,1.08,2.52s-.36,1.81-1.08,2.48c-.72.67-1.64,1-2.75,1s-2.06-.33-2.78-1Zm6,3.2v21.13h-6.48V9.2h6.48Z"/>
      <path class="cls-1" d="m53.23,11.38c1.48,1.6,2.22,3.81,2.22,6.61v12.35h-6.44v-11.48c0-1.41-.37-2.51-1.1-3.29-.73-.78-1.72-1.17-2.95-1.17s-2.22.39-2.95,1.17c-.73.78-1.1,1.88-1.1,3.29v11.48h-6.48V9.2h6.48v2.8c.66-.93,1.54-1.67,2.65-2.22,1.11-.54,2.36-.81,3.75-.81,2.47,0,4.45.8,5.93,2.41Z"/>
      <path class="cls-1" d="m78.76,11.38c1.48,1.6,2.22,3.81,2.22,6.61v12.35h-6.44v-11.48c0-1.41-.37-2.51-1.1-3.29-.73-.78-1.72-1.17-2.95-1.17s-2.22.39-2.95,1.17c-.73.78-1.1,1.88-1.1,3.29v11.48h-6.48V9.2h6.48v2.8c.66-.93,1.54-1.67,2.65-2.22,1.11-.54,2.36-.81,3.75-.81,2.47,0,4.45.8,5.93,2.41Z"/>
      <path class="cls-1" d="m89.52,29.31c-1.65-.88-2.95-2.15-3.9-3.79-.95-1.64-1.42-3.56-1.42-5.76s.48-4.08,1.44-5.74c.96-1.65,2.27-2.92,3.94-3.81s3.54-1.33,5.61-1.33,3.94.44,5.61,1.33,2.98,2.15,3.94,3.81c.96,1.65,1.44,3.57,1.44,5.74s-.49,4.08-1.46,5.74c-.97,1.65-2.3,2.92-3.98,3.81-1.68.88-3.55,1.33-5.62,1.33s-3.93-.44-5.59-1.33Zm8.75-5.64c.87-.91,1.31-2.21,1.31-3.9s-.42-2.99-1.27-3.9c-.85-.91-1.89-1.36-3.12-1.36s-2.31.45-3.14,1.34c-.83.9-1.25,2.2-1.25,3.92s.41,2.99,1.23,3.9c.82.91,1.85,1.36,3.09,1.36s2.29-.45,3.16-1.36Z"/>
      <path class="cls-1" d="m119.11,24.28l4.58-15.07h6.89l-7.5,21.13h-7.99l-7.5-21.13h6.93l4.58,15.07Z"/>
      <path class="cls-1" d="m133.26,14.01c.82-1.64,1.94-2.9,3.35-3.79,1.41-.88,2.99-1.33,4.73-1.33,1.49,0,2.8.3,3.92.91,1.12.61,1.99,1.4,2.59,2.39v-2.99h6.48v21.13h-6.48v-2.99c-.63.98-1.51,1.78-2.63,2.39-1.12.61-2.43.91-3.92.91-1.72,0-3.28-.45-4.7-1.34-1.42-.9-2.53-2.17-3.35-3.82s-1.23-3.57-1.23-5.74.41-4.08,1.23-5.72Zm13.26,1.93c-.9-.93-1.99-1.4-3.28-1.4s-2.38.46-3.28,1.38c-.9.92-1.34,2.19-1.34,3.81s.45,2.9,1.34,3.84,1.99,1.42,3.28,1.42,2.38-.47,3.28-1.4c.9-.93,1.34-2.21,1.34-3.83s-.45-2.89-1.34-3.83Z"/>
      <path class="cls-2" d="m195.62,3.75l-6.93,26.59h-7.84l-4.24-17.5-4.39,17.5h-7.84l-6.74-26.59h6.93l3.83,19.35,4.73-19.35h7.12l4.54,19.35,3.86-19.35h6.97Z"/>
      <path class="cls-2" d="m218.69,21.32h-14.66c.1,1.31.52,2.32,1.27,3.01s1.66,1.04,2.75,1.04c1.62,0,2.74-.68,3.37-2.05h6.89c-.35,1.39-.99,2.64-1.91,3.75s-2.08,1.98-3.47,2.61-2.94.95-4.66.95c-2.07,0-3.91-.44-5.53-1.33-1.62-.88-2.88-2.15-3.79-3.79-.91-1.64-1.36-3.56-1.36-5.76s.45-4.12,1.34-5.76c.9-1.64,2.15-2.9,3.77-3.79,1.62-.88,3.47-1.33,5.57-1.33s3.86.43,5.45,1.29c1.59.86,2.83,2.08,3.73,3.67.9,1.59,1.34,3.45,1.34,5.57,0,.61-.04,1.24-.11,1.89Zm-6.51-3.6c0-1.11-.38-1.99-1.14-2.65-.76-.66-1.7-.98-2.84-.98s-2,.32-2.75.95c-.75.63-1.21,1.53-1.38,2.69h8.11Z"/>
      <path class="cls-2" d="m231.3,9.81c1.14-.61,2.44-.91,3.9-.91,1.74,0,3.32.44,4.73,1.33s2.53,2.15,3.35,3.79c.82,1.64,1.23,3.55,1.23,5.72s-.41,4.08-1.23,5.74c-.82,1.65-1.94,2.93-3.35,3.82-1.41.9-2.99,1.34-4.73,1.34-1.49,0-2.79-.3-3.9-.89-1.11-.59-1.98-1.38-2.61-2.37v2.95h-6.48V2.31h6.48v9.89c.61-.98,1.48-1.78,2.61-2.39Zm5.28,6.12c-.9-.92-2-1.38-3.31-1.38s-2.38.47-3.28,1.4c-.9.93-1.34,2.21-1.34,3.83s.45,2.89,1.34,3.83c.9.93,1.99,1.4,3.28,1.4s2.39-.47,3.3-1.42c.91-.95,1.36-2.23,1.36-3.84s-.45-2.88-1.34-3.81Z"/>
    </g>
  </g>
</svg>